<?xml version="1.0" encoding="UTF-8" standalone="no"?>
<!-- Generator: Adobe Illustrator 19.0.0, SVG Export Plug-In . SVG Version: 6.00 Build 0)  -->

<svg
   xmlns:dc="http://purl.org/dc/elements/1.1/"
   xmlns:cc="http://creativecommons.org/ns#"
   xmlns:rdf="http://www.w3.org/1999/02/22-rdf-syntax-ns#"
   xmlns:svg="http://www.w3.org/2000/svg"
   xmlns="http://www.w3.org/2000/svg"
   xmlns:sodipodi="http://sodipodi.sourceforge.net/DTD/sodipodi-0.dtd"
   xmlns:inkscape="http://www.inkscape.org/namespaces/inkscape"
   version="1.1"
   id="Layer_1"
   x="0px"
   y="0px"
   viewBox="0 0 723.55102 481.263"
   xml:space="preserve"
   sodipodi:docname="1v1-foos.svg"
   width="723.55103"
   height="481.263"
   inkscape:version="0.92.4 (unknown)"><metadata
   id="metadata949"><rdf:RDF><cc:Work
       rdf:about=""><dc:format>image/svg+xml</dc:format><dc:type
         rdf:resource="http://purl.org/dc/dcmitype/StillImage" /><dc:title></dc:title></cc:Work></rdf:RDF></metadata><defs
   id="defs947" /><sodipodi:namedview
   pagecolor="#ffffff"
   bordercolor="#666666"
   borderopacity="1"
   objecttolerance="10"
   gridtolerance="10"
   guidetolerance="10"
   inkscape:pageopacity="0"
   inkscape:pageshadow="2"
   inkscape:window-width="1920"
   inkscape:window-height="1016"
   id="namedview945"
   showgrid="false"
   fit-margin-top="20"
   fit-margin-left="15"
   fit-margin-right="15"
   fit-margin-bottom="20"
   inkscape:zoom="0.79980469"
   inkscape:cx="668.46065"
   inkscape:cy="132.53008"
   inkscape:window-x="0"
   inkscape:window-y="27"
   inkscape:window-maximized="1"
   inkscape:current-layer="Layer_1" />
<g
   id="g906"
   transform="matrix(0.71114209,0,0,0.68265142,178.68045,65.872396)"
   style="fill:#7b1fa2;fill-opacity:1;stroke:none">
	<g
   id="g904"
   style="fill:#7b1fa2;fill-opacity:1;stroke:none">
		<path
   d="m 399.158,220.912 h 31.716 c 3.512,10.274 13.255,17.685 24.704,17.685 h 30.316 c 14.394,0 26.105,-11.711 26.105,-26.107 0,-14.394 -11.711,-26.105 -26.105,-26.105 h -30.316 c -11.448,0 -21.192,7.411 -24.704,17.684 h -31.717 v -70.174 h 31.717 c 3.512,10.273 13.255,17.684 24.704,17.684 h 30.316 c 14.394,0 26.105,-11.711 26.105,-26.105 0,-14.394 -11.711,-26.105 -26.105,-26.105 h -30.316 c -11.448,0 -21.192,7.411 -24.704,17.684 H 399.157 V 70.602 c 0,-19.428 -15.807,-35.233 -35.234,-35.233 H 148.075 c -19.428,0 -35.234,15.805 -35.234,35.233 v 46.451 H 81.126 C 77.614,106.78 67.871,99.369 56.422,99.369 H 26.105 C 11.711,99.368 0,111.078 0,125.474 c 0,14.396 11.711,26.105 26.105,26.105 h 30.316 c 11.448,0 21.192,-7.411 24.704,-17.684 h 31.717 v 70.174 H 81.126 C 77.614,193.796 67.871,186.385 56.422,186.385 H 26.105 C 11.711,186.385 0,198.096 0,212.491 c 0,14.395 11.711,26.107 26.105,26.107 h 30.316 c 11.448,0 21.192,-7.411 24.704,-17.685 h 31.716 v 70.174 H 81.126 C 77.614,280.814 67.871,273.403 56.422,273.403 H 26.105 C 11.711,273.403 0,285.113 0,299.508 c 0,14.395 11.711,26.107 26.105,26.107 h 30.316 c 11.448,0 21.192,-7.411 24.704,-17.685 h 31.716 v 70.174 H 81.126 C 77.614,367.831 67.871,360.42 56.422,360.42 H 26.105 C 11.711,360.42 0,372.131 0,386.525 c 0,14.395 11.711,26.107 26.105,26.107 h 30.316 c 11.448,0 21.192,-7.411 24.704,-17.685 h 31.716 v 46.451 c 0,19.428 15.807,35.234 35.234,35.234 h 215.848 c 19.428,0 35.234,-15.807 35.234,-35.234 v -46.451 h 31.716 c 3.512,10.274 13.255,17.685 24.704,17.685 h 30.316 c 14.394,0 26.105,-11.711 26.105,-26.107 0,-14.394 -11.711,-26.105 -26.105,-26.105 h -30.316 c -11.448,0 -21.192,7.411 -24.704,17.684 H 399.156 V 307.93 h 31.716 c 3.512,10.274 13.255,17.685 24.704,17.685 h 30.316 c 14.394,0 26.105,-11.711 26.105,-26.107 0,-14.394 -11.711,-26.105 -26.105,-26.105 h -30.315 c -11.448,0 -21.192,7.411 -24.704,17.684 h -31.717 v -70.174 h 0.002 z m 56.42,-17.684 h 30.316 c 5.107,0 9.263,4.156 9.263,9.263 0,5.108 -4.156,9.264 -9.263,9.264 h -30.316 c -5.107,0 -9.263,-4.156 -9.263,-9.264 10e-4,-5.108 4.157,-9.263 9.263,-9.263 z m 0,-87.017 h 30.316 c 5.107,0 9.263,4.156 9.263,9.262 0,5.107 -4.156,9.263 -9.263,9.263 h -30.316 c -5.107,0 -9.263,-4.156 -9.263,-9.263 10e-4,-5.106 4.157,-9.262 9.263,-9.262 z M 56.422,134.736 H 26.105 c -5.107,0 -9.262,-4.156 -9.262,-9.263 0,-5.107 4.156,-9.262 9.262,-9.262 h 30.316 c 5.107,0 9.262,4.156 9.262,9.262 10e-4,5.107 -4.155,9.263 -9.261,9.263 z m 0,87.017 H 26.105 c -5.107,0 -9.262,-4.156 -9.262,-9.264 0,-5.107 4.156,-9.262 9.262,-9.262 h 30.316 c 5.107,0 9.262,4.156 9.262,9.262 10e-4,5.11 -4.155,9.264 -9.261,9.264 z m 0,87.018 H 26.105 c -5.107,0 -9.262,-4.156 -9.262,-9.264 0,-5.107 4.156,-9.263 9.262,-9.263 h 30.316 c 5.107,0 9.262,4.156 9.262,9.263 10e-4,5.109 -4.155,9.264 -9.261,9.264 z m 0,87.017 H 26.105 c -5.107,0 -9.262,-4.156 -9.262,-9.264 0,-5.107 4.156,-9.262 9.262,-9.262 h 30.316 c 5.107,0 9.262,4.156 9.262,9.262 10e-4,5.109 -4.155,9.264 -9.261,9.264 z m 325.893,45.609 c 0,10.141 -8.251,18.391 -18.391,18.391 H 148.076 c -10.141,0 -18.391,-8.251 -18.391,-18.391 V 70.602 c 0,-10.141 8.251,-18.39 18.391,-18.39 h 215.848 c 10.141,0 18.391,8.25 18.391,18.39 z m 73.263,-64.134 h 30.316 c 5.107,0 9.263,4.156 9.263,9.262 0,5.108 -4.156,9.264 -9.263,9.264 h -30.316 c -5.107,0 -9.263,-4.156 -9.263,-9.264 10e-4,-5.106 4.157,-9.262 9.263,-9.262 z m 0,-87.017 h 30.316 c 5.107,0 9.263,4.156 9.263,9.262 0,5.108 -4.156,9.264 -9.263,9.264 h -30.316 c -5.107,0 -9.263,-4.156 -9.263,-9.264 0,-5.108 4.157,-9.262 9.263,-9.262 z"
   id="path902"
   inkscape:connector-curvature="0"
   style="fill:#7b1fa2;fill-opacity:1;stroke:none" />
	</g>
</g>
<g
   id="g912"
   transform="matrix(0.71114209,0,0,0.68265142,178.68045,65.872396)"
   style="fill:#7b1fa2;fill-opacity:1;stroke:none">
	<g
   id="g910"
   style="fill:#7b1fa2;fill-opacity:1;stroke:none">
		<path
   d="m 362.665,63.439 h -213.33 c -4.651,0 -8.421,3.771 -8.421,8.421 v 368.277 c 0,4.651 3.771,8.421 8.421,8.421 h 213.33 c 4.651,0 8.421,-3.771 8.421,-8.421 V 71.86 c 10e-4,-4.651 -3.77,-8.421 -8.421,-8.421 z m -123.79,16.843 h 34.248 v 7.929 c 0,1.361 -1.107,2.469 -2.469,2.469 h -29.31 c -1.361,0 -2.469,-1.107 -2.469,-2.469 z m -81.119,0 h 64.277 v 7.929 c 0,10.648 8.663,19.312 19.312,19.312 h 29.31 c 10.648,0 19.312,-8.663 19.312,-19.312 v -7.929 h 64.277 v 36.774 h -14.429 c -3.354,-8.374 -11.537,-14.313 -21.096,-14.313 -9.559,0 -17.742,5.938 -21.096,14.313 h -85.252 c -3.354,-8.374 -11.537,-14.313 -21.096,-14.313 -9.559,0 -17.742,5.938 -21.096,14.313 H 157.757 V 80.282 Z m 166.851,45.192 c 0,3.247 -2.641,5.888 -5.887,5.888 -3.247,-0.001 -5.888,-2.642 -5.888,-5.888 0,-3.246 2.641,-5.887 5.888,-5.887 3.246,-0.001 5.887,2.64 5.887,5.887 z m -127.445,0 c 0,3.247 -2.641,5.888 -5.887,5.888 -3.247,-0.001 -5.888,-2.642 -5.888,-5.888 0,-3.246 2.641,-5.887 5.888,-5.887 3.246,-0.001 5.887,2.64 5.887,5.887 z m -39.407,95.435 h 12.422 c 3.354,8.375 11.537,14.314 21.096,14.314 9.559,0 17.742,-5.939 21.096,-14.314 h 21.53 c 3.354,8.375 11.537,14.314 21.096,14.314 9.559,0 17.742,-5.939 21.096,-14.314 h 21.53 c 3.354,8.374 11.537,14.313 21.096,14.313 9.558,0 17.741,-5.938 21.095,-14.313 h 14.429 v 70.174 H 339.81 c -3.356,-8.371 -11.537,-14.306 -21.093,-14.306 -9.557,0 -17.738,5.935 -21.094,14.306 h -21.536 c -3.356,-8.371 -11.537,-14.304 -21.093,-14.304 -9.556,0 -17.737,5.934 -21.093,14.304 h -21.536 c -3.356,-8.371 -11.537,-14.304 -21.093,-14.304 -9.556,0 -17.737,5.934 -21.093,14.304 h -12.424 z m 27.632,-8.417 c 0,-3.246 2.641,-5.887 5.888,-5.887 3.246,0 5.887,2.641 5.887,5.887 0,3.247 -2.641,5.888 -5.887,5.888 -3.247,0 -5.888,-2.641 -5.888,-5.888 z m 63.722,0 c 0,-3.246 2.641,-5.887 5.888,-5.887 3.246,0 5.887,2.641 5.887,5.887 0,3.247 -2.641,5.888 -5.887,5.888 -3.247,0 -5.888,-2.641 -5.888,-5.888 z m 63.722,-10e-4 c 0,-3.246 2.641,-5.887 5.888,-5.887 3.246,0 5.887,2.641 5.887,5.887 0,3.247 -2.641,5.888 -5.887,5.888 -3.247,-0.001 -5.888,-2.642 -5.888,-5.888 z m 11.776,87.016 c 0,3.246 -2.641,5.887 -5.887,5.887 -3.247,0 -5.888,-2.641 -5.888,-5.887 0,-3.247 2.641,-5.888 5.888,-5.888 3.246,10e-4 5.887,2.642 5.887,5.888 z m -63.723,0.002 c 0,3.246 -2.641,5.887 -5.887,5.887 -3.247,0 -5.888,-2.641 -5.888,-5.887 0,-3.247 2.641,-5.888 5.888,-5.888 3.246,0 5.887,2.641 5.887,5.888 z m -63.722,0 c 0,3.246 -2.641,5.887 -5.887,5.887 -3.247,0 -5.888,-2.641 -5.888,-5.887 0,-3.247 2.641,-5.888 5.888,-5.888 3.246,0 5.887,2.641 5.887,5.888 z m -39.407,8.416 h 12.421 c 3.354,8.375 11.537,14.314 21.096,14.314 9.559,0 17.742,-5.939 21.096,-14.314 h 21.53 c 3.354,8.375 11.537,14.314 21.096,14.314 9.559,0 17.742,-5.939 21.096,-14.314 h 21.53 c 3.354,8.374 11.537,14.312 21.096,14.312 9.558,0 17.741,-5.938 21.095,-14.312 h 14.429 v 70.182 h -14.427 c -3.354,-8.374 -11.537,-14.313 -21.096,-14.313 -9.559,0 -17.742,5.938 -21.096,14.313 H 212.37 c -3.354,-8.374 -11.537,-14.313 -21.096,-14.313 -9.559,0 -17.742,5.938 -21.096,14.313 h -12.422 v -70.182 z m 166.852,78.6 c 0,3.247 -2.641,5.888 -5.887,5.888 -3.247,0 -5.888,-2.641 -5.888,-5.888 0,-3.246 2.641,-5.887 5.888,-5.887 3.246,0 5.887,2.641 5.887,5.887 z m -127.445,0 c 0,3.247 -2.641,5.888 -5.887,5.888 -3.247,0 -5.888,-2.641 -5.888,-5.888 0,-3.246 2.641,-5.887 5.888,-5.887 3.246,0 5.887,2.641 5.887,5.887 z m 75.963,45.191 h -34.248 v -7.929 c 0,-1.361 1.107,-2.469 2.469,-2.469 h 29.31 c 1.361,0 2.469,1.107 2.469,2.469 z m 81.119,0 h -64.277 v -7.929 c 0,-10.648 -8.663,-19.312 -19.312,-19.312 h -29.31 c -10.648,0 -19.312,8.663 -19.312,19.312 v 7.929 H 157.756 V 394.95 h 12.424 c 3.356,8.371 11.537,14.305 21.094,14.305 9.556,0 17.737,-5.934 21.093,-14.305 h 85.258 c 3.356,8.371 11.537,14.305 21.094,14.305 9.556,0 17.737,-5.934 21.093,-14.305 h 14.432 z m 10e-4,-227.65 h -10e-4 -14.431 c -3.356,-8.371 -11.537,-14.305 -21.093,-14.305 -9.556,0 -17.738,5.934 -21.094,14.305 H 276.09 c -3.356,-8.37 -11.537,-14.304 -21.093,-14.304 -9.556,0 -17.737,5.934 -21.093,14.304 h -21.536 c -3.356,-8.37 -11.537,-14.304 -21.093,-14.304 -9.556,0 -17.737,5.934 -21.093,14.304 h -12.424 v -70.168 h 12.424 c 3.356,8.371 11.537,14.305 21.094,14.305 9.556,0 17.737,-5.934 21.093,-14.305 h 85.258 c 3.356,8.371 11.537,14.305 21.094,14.305 9.556,0 17.737,-5.934 21.093,-14.305 h 14.432 v 70.168 z"
   id="path908"
   inkscape:connector-curvature="0"
   style="fill:#7b1fa2;fill-opacity:1;stroke:none" />
	</g>
</g>
<g
   id="g914"
   transform="translate(104.3093,-15.369)"
   style="fill:#7b1fa2;fill-opacity:1;stroke:none">
</g>
<g
   id="g916"
   transform="translate(104.3093,-15.369)"
   style="fill:#7b1fa2;fill-opacity:1;stroke:none">
</g>
<g
   id="g918"
   transform="translate(104.3093,-15.369)"
   style="fill:#7b1fa2;fill-opacity:1;stroke:none">
</g>
<g
   id="g920"
   transform="translate(104.3093,-15.369)"
   style="fill:#7b1fa2;fill-opacity:1;stroke:none">
</g>
<g
   id="g922"
   transform="translate(104.3093,-15.369)"
   style="fill:#7b1fa2;fill-opacity:1;stroke:none">
</g>
<g
   id="g924"
   transform="translate(104.3093,-15.369)"
   style="fill:#7b1fa2;fill-opacity:1;stroke:none">
</g>
<g
   id="g926"
   transform="translate(104.3093,-15.369)"
   style="fill:#7b1fa2;fill-opacity:1;stroke:none">
</g>
<g
   id="g928"
   transform="translate(104.3093,-15.369)"
   style="fill:#7b1fa2;fill-opacity:1;stroke:none">
</g>
<g
   id="g930"
   transform="translate(104.3093,-15.369)"
   style="fill:#7b1fa2;fill-opacity:1;stroke:none">
</g>
<g
   id="g932"
   transform="translate(104.3093,-15.369)"
   style="fill:#7b1fa2;fill-opacity:1;stroke:none">
</g>
<g
   id="g934"
   transform="translate(104.3093,-15.369)"
   style="fill:#7b1fa2;fill-opacity:1;stroke:none">
</g>
<g
   id="g936"
   transform="translate(104.3093,-15.369)"
   style="fill:#7b1fa2;fill-opacity:1;stroke:none">
</g>
<g
   id="g938"
   transform="translate(104.3093,-15.369)"
   style="fill:#7b1fa2;fill-opacity:1;stroke:none">
</g>
<g
   id="g940"
   transform="translate(104.3093,-15.369)"
   style="fill:#7b1fa2;fill-opacity:1;stroke:none">
</g>
<g
   id="g942"
   transform="translate(104.3093,-15.369)"
   style="fill:#7b1fa2;fill-opacity:1;stroke:none">
</g>
<g
   id="g977"
   transform="matrix(0.71114209,0,0,0.68265142,167.21416,121.19633)"
   style="fill:#7b1fa2;fill-opacity:1;stroke:none"><g
     id="g1060"
     style="fill:#7b1fa2;fill-opacity:1;stroke:none"><path
       transform="translate(-101.3093,-45.67373)"
       id="rect969"
       d="M 44.263672,140.37891 C 20.019016,140.37891 0.5,167.07308 0.5,200.23242 v 35.00977 c 0,33.15934 19.519016,59.85351 43.763672,59.85351 24.244656,0 43.761719,-26.69417 43.761719,-59.85351 v -35.00977 c 0,-33.15934 -19.517063,-59.85351 -43.761719,-59.85351 z M 45.611328,174.75 A 39.342419,39.342419 0 0 1 84.953125,214.09375 39.342419,39.342419 0 0 1 45.611328,253.43555 39.342419,39.342419 0 0 1 6.2675781,214.09375 39.342419,39.342419 0 0 1 45.611328,174.75 Z"
       style="fill:#7b1fa2;fill-opacity:1;stroke:none;stroke-opacity:1"
       inkscape:connector-curvature="0" /><ellipse
       ry="17.613842"
       rx="22.918438"
       cy="101.58922"
       cx="-56.118759"
       id="ellipse973"
       style="fill:#7b1fa2;fill-opacity:1;stroke:none;stroke-width:1.13628829;stroke-opacity:1" /><ellipse
       style="fill:#7b1fa2;fill-opacity:1;stroke:none;stroke-width:1.13628829;stroke-opacity:1"
       id="ellipse975"
       cx="-56.118759"
       cy="240.16101"
       rx="22.918438"
       ry="17.613842" /></g></g><g
   id="g1134"
   transform="matrix(-0.71114209,0,0,0.68265142,556.33687,121.19633)"
   style="fill:#7b1fa2;fill-opacity:1;stroke:none"><g
     id="g1132"
     style="fill:#7b1fa2;fill-opacity:1;stroke:none"><path
       inkscape:connector-curvature="0"
       transform="translate(-101.3093,-45.67373)"
       id="path1126"
       d="M 44.263672,140.37891 C 20.019016,140.37891 0.5,167.07308 0.5,200.23242 v 35.00977 c 0,33.15934 19.519016,59.85351 43.763672,59.85351 24.244656,0 43.761719,-26.69417 43.761719,-59.85351 v -35.00977 c 0,-33.15934 -19.517063,-59.85351 -43.761719,-59.85351 z M 45.611328,174.75 A 39.342419,39.342419 0 0 1 84.953125,214.09375 39.342419,39.342419 0 0 1 45.611328,253.43555 39.342419,39.342419 0 0 1 6.2675781,214.09375 39.342419,39.342419 0 0 1 45.611328,174.75 Z"
       style="fill:#7b1fa2;fill-opacity:1;stroke:none;stroke-opacity:1" /><ellipse
       ry="17.613842"
       rx="22.918438"
       cy="101.58922"
       cx="-56.118759"
       id="ellipse1128"
       style="fill:#7b1fa2;fill-opacity:1;stroke:none;stroke-width:1.13628829;stroke-opacity:1" /><ellipse
       style="fill:#7b1fa2;fill-opacity:1;stroke:none;stroke-width:1.13628829;stroke-opacity:1"
       id="ellipse1130"
       cx="-56.118759"
       cy="240.16101"
       rx="22.918438"
       ry="17.613842" /></g></g></svg>